HIERARCHY
ROOT Hips
{
	OFFSET 0.00000 0.00000 0.00000
	CHANNELS 6 Xposition Yposition Zposition Zrotation Yrotation Xrotation 
	JOINT LHipJoint
	{
		OFFSET 0 0 0
		CHANNELS 3 Zrotation Yrotation Xrotation
		JOINT LeftUpLeg
		{
			OFFSET 1.40001 -1.72600 0.84541
			CHANNELS 3 Zrotation Yrotation Xrotation
			JOINT LeftLeg
			{
				OFFSET 2.34760 -6.44999 0.00000
				CHANNELS 3 Zrotation Yrotation Xrotation
				JOINT LeftFoot
				{
					OFFSET 2.50650 -6.88655 0.00000
					CHANNELS 3 Zrotation Yrotation Xrotation
					JOINT LeftToeBase
					{
						OFFSET 0.12464 -0.34243 1.95563
						CHANNELS 3 Zrotation Yrotation Xrotation
						End Site
						{
							OFFSET 0.00000 -0.00000 1.00479
						}
					}
				}
			}
		}
	}
	JOINT RHipJoint
	{
		OFFSET 0 0 0
		CHANNELS 3 Zrotation Yrotation Xrotation
		JOINT RightUpLeg
		{
			OFFSET -1.40958 -1.72600 0.84541
			CHANNELS 3 Zrotation Yrotation Xrotation
			JOINT RightLeg
			{
				OFFSET -2.37905 -6.53640 0.00000
				CHANNELS 3 Zrotation Yrotation Xrotation
				JOINT RightFoot
				{
					OFFSET -2.50470 -6.88163 0.00000
					CHANNELS 3 Zrotation Yrotation Xrotation
					JOINT RightToeBase
					{
						OFFSET -0.12236 -0.33619 1.81785
						CHANNELS 3 Zrotation Yrotation Xrotation
						End Site
						{
							OFFSET -0.00000 -0.00000 0.93746
						}
					}
				}
			}
		}
	}
	JOINT LowerBack
	{
		OFFSET 0 0 0
		CHANNELS 3 Zrotation Yrotation Xrotation
		JOINT Spine
		{
			OFFSET -0.02146 1.96915 0.26424
			CHANNELS 3 Zrotation Yrotation Xrotation
			JOINT Spine1
			{
				OFFSET 0.01522 1.99484 0.02086
				CHANNELS 3 Zrotation Yrotation Xrotation
				JOINT Neck
				{
					OFFSET 0 0 0
					CHANNELS 3 Zrotation Yrotation Xrotation
					JOINT Neck1
					{
						OFFSET -0.02954 1.71757 0.03505
						CHANNELS 3 Zrotation Yrotation Xrotation
						JOINT Head
						{
							OFFSET 0.04170 1.65781 -0.11024
							CHANNELS 3 Zrotation Yrotation Xrotation
							End Site
							{
								OFFSET 0.01600 1.81465 -0.05144
							}
						}
					}
				}
				JOINT LeftShoulder
				{
					OFFSET 0 0 0
					CHANNELS 3 Zrotation Yrotation Xrotation
					JOINT LeftArm
					{
						OFFSET 2.77679 1.60868 -0.78649
						CHANNELS 3 Zrotation Yrotation Xrotation
						JOINT LeftForeArm
						{
							OFFSET 4.62672 -0.00000 -0.00000
							CHANNELS 3 Zrotation Yrotation Xrotation
							JOINT LeftHand
							{
								OFFSET 3.11018 -0.00000 -0.00000
								CHANNELS 3 Zrotation Yrotation Xrotation
								JOINT LeftFingerBase
								{
									OFFSET 0 0 0
									CHANNELS 3 Zrotation Yrotation Xrotation
									JOINT LeftHandIndex1
									{
										OFFSET 0.74383 -0.00000 -0.00000
										CHANNELS 3 Zrotation Yrotation Xrotation
										End Site
										{
											OFFSET 0.59970 -0.00000 -0.00000
										}
									}
								}
								JOINT LThumb
								{
									OFFSET 0 0 0
									CHANNELS 3 Zrotation Yrotation Xrotation
									End Site
									{
										OFFSET 0.60885 -0.00000 0.60885
									}
								}
							}
						}
					}
				}
				JOINT RightShoulder
				{
					OFFSET 0 0 0
					CHANNELS 3 Zrotation Yrotation Xrotation
					JOINT RightArm
					{
						OFFSET -2.73247 1.63658 -0.74740
						CHANNELS 3 Zrotation Yrotation Xrotation
						JOINT RightForeArm
						{
							OFFSET -4.55919 -0.00000 -0.00000
							CHANNELS 3 Zrotation Yrotation Xrotation
							JOINT RightHand
							{
								OFFSET -3.22748 -0.00000 -0.00000
								CHANNELS 3 Zrotation Yrotation Xrotation
								JOINT RightFingerBase
								{
									OFFSET 0 0 0
									CHANNELS 3 Zrotation Yrotation Xrotation
									JOINT RightHandIndex1
									{
										OFFSET -0.70088 -0.00000 -0.00000
										CHANNELS 3 Zrotation Yrotation Xrotation
										End Site
										{
											OFFSET -0.56507 -0.00000 -0.00000
										}
									}
								}
								JOINT RThumb
								{
									OFFSET 0 0 0
									CHANNELS 3 Zrotation Yrotation Xrotation
									End Site
									{
										OFFSET -0.57370 -0.00000 0.57370
									}
								}
							}
						}
					}
				}
			}
		}
	}
}
MOTION
Frames: 15
Frame Time: .0083333
-0.0272 16.3365 1.7768 2.6104 -0.7179 15.8687 0.0000 0.0000 0.0000 -23.6441 -8.6816 -25.6782 3.6786 11.7200 34.7485 1.4872 -7.6615 -21.8202 0.1016 -2.0555 -5.6591 0.0000 0.0000 0.0000 14.1095 8.8255 -43.8420 -11.5970 -18.2150 64.7056 -0.5731 2.5362 -13.6579 -0.5491 4.7473 -13.1892 -3.8688 -0.5901 -13.5349 -0.9667 -0.2607 -5.2715 1.1342 -0.1011 2.0492 -0.8931 -0.7421 -5.0725 4.3594 -1.3721 9.9914 1.5550 -0.5066 4.2427 -0.0000 -0.0000 0.0000 -87.2871 2.4099 11.6957 10.6256 -17.7122 -1.6602 -0.0000 -0.0000 9.6434 18.3733 -13.6286 -4.4749 -7.1250 0.0000 -0.0000 -6.1791 15.7044 4.3013 -0.0000 -0.0000 0.0000 91.3172 -17.2346 17.7351 -13.1951 21.5724 -2.5246 0.0000 -0.0000 -4.5526 -18.2486 -32.9078 10.1560 7.1250 -0.0000 -0.0000 17.4425 -63.4268 -7.9190
-0.0254 16.3403 1.9855 2.5076 -0.4344 15.9489 0.0000 0.0000 0.0000 -23.6594 -8.0182 -24.8242 3.5802 11.5797 34.2610 1.5422 -8.5840 -22.2372 0.0729 -1.7419 -4.7929 0.0000 0.0000 0.0000 14.2423 9.0975 -44.7549 -10.9081 -17.8898 62.4829 -0.6239 1.9598 -14.3794 -0.3659 3.8854 -10.7543 -3.7147 -0.7206 -13.6467 -0.8400 -0.4512 -5.2800 1.1502 -0.1971 2.1100 -0.8518 -0.7067 -4.8227 4.2808 -1.3143 9.8605 1.5213 -0.4844 4.1421 0.0000 -0.0000 0.0000 -86.9418 1.5555 14.5588 11.1633 -18.5381 -1.8275 -0.0000 -0.0000 8.3179 19.2640 -14.5131 -5.0053 -7.1250 0.0000 -0.0000 -5.5961 14.6966 4.0128 0.0000 -0.0000 0.0000 91.5001 -17.6645 15.8965 -12.2337 20.1542 -2.1821 0.0000 -0.0000 -2.1407 -17.0356 -32.7116 9.4021 7.1250 -0.0000 -0.0000 18.6321 -62.9238 -8.2579
-0.0305 16.3424 2.1938 2.3765 0.0564 16.0183 0.0000 0.0000 0.0000 -23.5715 -7.2862 -23.9753 3.4714 11.4216 33.7152 1.5708 -9.7287 -22.4968 0.0462 -1.3876 -3.8158 0.0000 0.0000 0.0000 14.5346 9.1654 -45.5449 -10.1577 -17.4976 60.0141 -0.6745 1.0904 -15.1817 -0.2680 3.3301 -9.1992 -3.6251 -0.9453 -13.6595 -0.6368 -0.7642 -5.2610 1.2637 -0.3528 2.1532 -0.9335 -0.7258 -4.9399 4.1989 -1.3281 9.9486 1.5089 -0.4960 4.1972 0.0000 -0.0000 0.0000 -86.5491 0.6940 18.0647 12.0895 -19.9387 -2.1327 -0.0000 -0.0000 4.5502 18.9419 -13.3760 -4.5395 -7.1250 0.0000 -0.0000 -5.7822 15.9155 3.9956 0.0000 -0.0000 0.0000 91.6671 -18.0546 13.8883 -11.4090 18.9125 -1.9064 0.0000 0.0000 0.4304 -16.1745 -32.6579 8.8954 7.1250 -0.0000 -0.0000 19.5387 -62.6511 -8.5501
-0.0382 16.3478 2.4033 2.3093 0.7174 15.9744 0.0000 0.0000 0.0000 -23.5118 -6.4328 -23.0259 3.3564 11.2507 33.1302 1.5828 -10.8596 -22.6784 0.0283 -1.0865 -2.9869 0.0000 0.0000 0.0000 14.7922 9.1205 -46.1019 -9.3713 -17.0408 57.3655 -0.7213 0.4701 -15.8956 -0.2352 3.1211 -8.6160 -3.6035 -1.2283 -13.4811 -0.4585 -1.1544 -5.2777 1.3804 -0.5441 2.0617 -1.0330 -0.7230 -5.0079 4.2132 -1.3242 10.1444 1.5345 -0.4944 4.2827 -0.0000 -0.0000 0.0000 -86.1038 -0.0932 21.0025 12.9148 -21.1623 -2.4225 -0.0000 -0.0000 2.1796 19.3192 -13.3947 -4.6429 -7.1250 0.0000 -0.0000 -5.5232 15.8611 3.8214 -0.0000 -0.0000 0.0000 91.8474 -18.5841 11.7189 -10.7242 17.8643 -1.6903 0.0000 0.0000 3.0811 -15.1939 -32.8887 8.3889 7.1250 -0.0000 -0.0000 20.8207 -62.6137 -9.1180
-0.0477 16.3460 2.6110 2.2641 1.2838 15.8762 0.0000 0.0000 0.0000 -23.4729 -5.5217 -21.9903 3.2267 11.0534 32.4601 1.6007 -11.5403 -22.8795 0.0336 -1.1834 -3.2536 0.0000 0.0000 0.0000 14.9321 9.2777 -46.5128 -8.5639 -16.5188 54.5695 -0.7548 -0.0164 -16.4278 -0.1025 2.0644 -5.6836 -3.5771 -1.4391 -13.3938 -0.3716 -1.4406 -5.2082 1.4134 -0.6873 2.1036 -1.0065 -0.7308 -4.9105 4.2821 -1.3445 10.1492 1.5519 -0.5013 4.2663 -0.0000 -0.0000 0.0000 -85.5011 -1.1371 23.5899 13.6679 -22.2579 -2.7010 -0.0000 -0.0000 0.9336 19.6219 -13.8742 -4.8863 -7.1250 0.0000 -0.0000 -5.3303 15.3296 3.7480 -0.0000 -0.0000 0.0000 92.1978 -19.0890 9.2889 -10.2886 17.1897 -1.5591 0.0000 0.0000 6.0475 -13.3425 -34.4592 7.6433 7.1250 -0.0000 -0.0000 24.3526 -63.5586 -11.2960
-0.0515 16.3466 2.8166 2.2655 1.5807 15.9455 0.0000 0.0000 0.0000 -23.5269 -4.6798 -21.0609 3.0776 10.8196 31.6740 1.6073 -12.0206 -22.9875 0.0542 -1.5028 -4.1335 0.0000 0.0000 0.0000 14.8897 9.5044 -47.0588 -7.7322 -15.9187 51.5923 -0.7559 -0.7694 -16.7223 -0.1147 2.1834 -6.0129 -3.5476 -1.5439 -13.4383 -0.3201 -1.5810 -5.1671 1.4276 -0.7586 2.1786 -0.9385 -0.8010 -4.8415 4.2314 -1.4367 10.0648 1.5162 -0.5482 4.2233 -0.0000 -0.0000 0.0000 -84.9243 -2.1634 25.9850 14.5574 -23.5260 -3.0471 -0.0000 0.0000 -0.6008 19.3591 -13.7278 -4.7663 -7.1250 0.0000 -0.0000 -5.5056 15.5085 3.8512 -0.0000 -0.0000 0.0000 92.5635 -19.6784 6.9789 -9.9206 16.6153 -1.4522 0.0000 0.0000 8.7455 -12.2184 -35.4060 7.1509 7.1250 -0.0000 -0.0000 26.5792 -64.0953 -12.7325
-0.0497 16.3555 3.0225 2.3603 1.8296 16.0733 0.0000 0.0000 0.0000 -23.6807 -3.8111 -20.1967 2.9158 10.5576 30.8018 1.5487 -13.0597 -22.7575 0.0430 -1.3391 -3.6823 0.0000 0.0000 0.0000 14.6868 9.6148 -47.5318 -6.8838 -15.2332 48.4333 -0.7211 -1.2671 -16.5485 -0.1964 2.8539 -7.8724 -3.5342 -1.6516 -13.4182 -0.2862 -1.7278 -5.2134 1.4340 -0.8301 2.1274 -0.9113 -0.8611 -4.7898 4.1794 -1.5110 9.9636 1.4885 -0.5880 4.1777 0.0000 -0.0000 0.0000 -84.4646 -2.9904 27.7641 15.5239 -24.8708 -3.4433 -0.0000 0.0000 -1.7750 19.2578 -13.3939 -4.6268 -7.1250 0.0000 -0.0000 -5.5654 15.8676 3.8501 0.0000 -0.0000 0.0000 92.8266 -20.2573 4.7058 -9.3304 15.6855 -1.2880 0.0000 0.0000 10.6748 -12.8705 -34.5998 7.3926 7.1250 -0.0000 -0.0000 25.0094 -63.5594 -11.6203
-0.0567 16.3624 3.2341 2.3744 2.1150 16.0396 0.0000 0.0000 0.0000 -23.6862 -2.7621 -19.1705 2.7452 10.2706 29.8576 1.4542 -14.3045 -22.3748 0.0246 -1.0115 -2.7805 0.0000 0.0000 0.0000 14.5297 9.9171 -47.5944 -6.0393 -14.4663 45.1391 -0.6848 -1.3569 -16.1804 -0.1235 2.2654 -6.2398 -3.5456 -1.7643 -13.5335 -0.2312 -1.8688 -5.0930 1.4713 -0.9040 2.3251 -0.8622 -0.9036 -4.6282 4.1428 -1.5585 9.6912 1.4616 -0.6160 4.0482 -0.0000 -0.0000 0.0000 -83.9551 -3.9977 29.3023 16.3999 -26.0599 -3.8200 -0.0000 0.0000 -2.5814 19.6155 -13.5255 -4.7647 -7.1250 0.0000 -0.0000 -5.3234 15.6960 3.7010 -0.0000 -0.0000 0.0000 93.1508 -20.6291 1.8924 -8.8185 14.8707 -1.1531 0.0000 0.0000 12.8865 -13.1970 -33.9782 7.4662 7.1250 -0.0000 -0.0000 24.0234 -63.0897 -10.8706
-0.0658 16.3670 3.4451 2.2456 2.4067 15.9519 0.0000 0.0000 0.0000 -23.5149 -1.6823 -18.0621 2.5713 9.9665 28.8682 1.3961 -15.1265 -22.1860 0.0307 -1.1318 -3.1115 0.0000 0.0000 0.0000 14.4837 10.3117 -47.5509 -5.2272 -13.6352 41.7954 -0.6476 -1.4530 -15.7956 -0.0905 1.9404 -5.3410 -3.4680 -1.8422 -13.5052 -0.1309 -1.9839 -4.9874 1.5132 -0.9637 2.4278 -0.7599 -0.8878 -4.4752 4.0771 -1.5308 9.4763 1.4199 -0.6055 3.9380 0.0000 -0.0000 0.0000 -83.3926 -5.0401 30.9193 17.2832 -27.2296 -4.2161 -0.0000 0.0000 -3.5678 20.0433 -13.6902 -4.9349 -7.1250 0.0000 -0.0000 -5.0353 15.4814 3.5224 0.0000 -0.0000 0.0000 93.4879 -20.9082 -1.5380 -8.3532 14.1238 -1.0366 0.0000 0.0000 15.6574 -12.8245 -34.2540 7.3017 7.1250 -0.0000 -0.0000 24.7023 -63.2391 -11.2837
-0.0705 16.3640 3.6534 2.2297 2.8053 15.9429 0.0000 0.0000 0.0000 -23.4328 -0.7101 -16.9995 2.4042 9.6617 27.8879 1.3478 -15.8878 -22.0719 0.0360 -1.2239 -3.3650 0.0000 0.0000 0.0000 14.4118 10.3836 -47.5983 -4.4712 -12.7624 38.4853 -0.6189 -1.4398 -15.4506 -0.1915 2.8183 -7.7732 -3.4389 -1.9943 -13.4224 -0.0361 -2.1943 -4.9503 1.5644 -1.0684 2.4359 -0.7923 -0.8333 -4.5250 4.1408 -1.4589 9.4128 1.4501 -0.5686 3.9247 -0.0000 -0.0000 0.0000 -82.8722 -5.9952 32.3301 18.1982 -28.4102 -4.6432 -0.0000 0.0000 -4.6445 20.3359 -13.5943 -4.9787 -7.1250 0.0000 -0.0000 -4.8311 15.5534 3.3710 -0.0000 -0.0000 0.0000 93.6975 -21.1243 -4.9844 -7.8531 13.3145 -0.9180 0.0000 0.0000 18.3183 -12.7290 -34.6385 7.3165 7.1250 -0.0000 -0.0000 25.2026 -63.5564 -11.7141
-0.0761 16.3467 3.8658 2.5322 3.1928 15.9738 0.0000 0.0000 0.0000 -23.6774 0.3214 -15.9200 2.2429 9.3547 26.9112 1.3128 -16.5774 -22.0459 0.0665 -1.6639 -4.5775 0.0000 0.0000 0.0000 14.0898 10.2340 -47.5839 -3.7861 -11.8702 35.2743 -0.5811 -1.2572 -14.9096 -0.3714 3.9142 -10.8355 -3.6897 -2.1944 -13.5800 -0.0375 -2.4172 -4.8625 1.6619 -1.1814 2.6336 -0.9467 -0.8034 -4.6304 4.2855 -1.4208 9.4267 1.5291 -0.5477 3.9537 -0.0000 -0.0000 0.0000 -82.3478 -6.9500 33.6403 19.0659 -29.5005 -5.0633 -0.0000 0.0000 -5.8976 20.2893 -13.6212 -4.9759 -7.1250 0.0000 -0.0000 -4.8641 15.5298 3.3966 -0.0000 -0.0000 0.0000 93.9238 -21.5619 -7.7633 -7.5626 12.8414 -0.8523 0.0000 0.0000 20.4751 -12.9629 -34.5374 7.4352 7.1250 -0.0000 -0.0000 24.8445 -63.5281 -11.5208
-0.0829 16.3332 4.0695 2.7685 3.6805 16.0584 0.0000 0.0000 0.0000 -23.7970 1.2866 -14.9382 2.0896 9.0503 25.9527 1.3034 -17.0863 -22.1450 0.1740 -2.6871 -7.4088 0.0000 0.0000 0.0000 13.7764 10.1223 -47.6200 -3.1685 -10.9629 32.1549 -0.5296 -0.9021 -14.1031 -0.5446 4.7279 -13.1340 -3.8597 -2.3804 -13.5474 -0.0421 -2.6423 -4.8994 1.7182 -1.2911 2.5966 -0.8679 -0.8429 -4.5091 4.2172 -1.4706 9.3480 1.4882 -0.5746 3.9011 0.0000 0.0000 0.0000 -81.7683 -7.6434 34.9476 20.0354 -30.6850 -5.5494 -0.0000 0.0000 -7.3742 20.6933 -14.3126 -5.3348 -7.1250 0.0000 -0.0000 -4.6153 14.7594 3.2981 0.0000 0.0000 0.0000 94.2330 -22.2017 -10.5835 -7.3287 12.4590 -0.8011 0.0000 0.0000 22.7570 -13.1212 -34.0750 7.4406 7.1250 -0.0000 -0.0000 24.2018 -63.1567 -10.9943
-0.0880 16.3212 4.2753 2.7889 4.1674 16.0270 0.0000 0.0000 0.0000 -23.6474 2.0862 -13.8192 1.9479 8.7566 25.0370 1.3426 -17.1388 -22.4157 0.3986 -4.0534 -11.2269 0.0000 0.0000 0.0000 13.6557 10.0812 -47.5165 -2.6209 -10.0545 29.1535 -0.5139 -0.1750 -13.6088 -0.5298 4.6642 -12.9534 -3.8144 -2.5418 -13.4071 0.0016 -2.8686 -4.8714 1.7065 -1.4035 2.5640 -0.6602 -0.8879 -4.3306 4.0792 -1.5233 9.0539 1.3987 -0.6047 3.7586 0.0000 0.0000 0.0000 -81.2186 -8.3831 35.9569 21.0013 -31.8299 -6.0506 -0.0000 0.0000 -8.5580 21.9934 -15.3800 -6.1142 -7.1250 0.0000 -0.0000 -3.7882 13.4827 2.8069 0.0000 0.0000 0.0000 94.5107 -22.5569 -13.8462 -7.0489 11.9997 -0.7418 0.0000 0.0000 25.2659 -13.2876 -33.6913 7.4634 7.1250 -0.0000 -0.0000 23.6439 -62.8560 -10.5590
-0.0903 16.2875 4.5069 2.8186 4.2295 15.7869 0.0000 0.0000 0.0000 -23.6026 3.0347 -12.2849 1.7928 8.4205 23.9986 1.4744 -16.2630 -23.0020 0.8967 -6.0353 -16.8868 0.0000 0.0000 0.0000 13.5119 10.2434 -47.1874 -2.1634 -9.1984 26.4179 -0.5111 0.5258 -13.3341 -0.5067 4.5629 -12.6660 -3.7734 -2.5727 -13.4974 0.0133 -2.9073 -4.6946 1.6815 -1.4286 2.7994 -0.7122 -0.8833 -4.1549 4.1372 -1.5079 8.7876 1.4253 -0.6015 3.6319 -0.0000 -0.0000 0.0000 -80.7621 -9.3205 36.8956 21.8845 -32.8462 -6.5231 -0.0000 0.0000 -9.9864 22.7850 -15.6174 -6.4518 -7.1250 0.0000 -0.0000 -3.2702 13.1331 2.4457 -0.0000 -0.0000 0.0000 94.8030 -22.7713 -17.9366 -6.8273 11.6346 -0.6964 0.0000 0.0000 28.1770 -13.4729 -33.5739 7.5472 7.1250 -0.0000 -0.0000 23.3295 -62.7970 -10.3782
-0.0931 16.2560 4.7357 2.7271 4.1781 15.6128 0.0000 0.0000 0.0000 -23.4281 3.8760 -10.6403 1.6159 8.0155 22.7612 1.5057 -15.9432 -23.1165 1.1066 -6.6838 -18.7818 0.0000 0.0000 0.0000 13.5189 10.4686 -47.0115 -1.8009 -8.4384 24.0538 -0.5195 1.5065 -13.1782 -0.5019 4.5418 -12.6062 -3.5871 -2.5425 -13.6119 0.0575 -2.8863 -4.5884 1.6194 -1.4222 2.9654 -0.8745 -0.8825 -4.1115 4.2178 -1.5012 8.7759 1.4814 -0.6010 3.6227 -0.0000 -0.0000 0.0000 -80.3228 -10.1180 37.8903 22.9548 -34.0393 -7.1130 -0.0000 0.0000 -12.1867 23.1184 -15.2786 -6.4186 -7.1250 0.0000 -0.0000 -3.0240 13.4543 2.2406 -0.0000 -0.0000 0.0000 95.0758 -22.9354 -23.3953 -6.5698 11.2090 -0.6454 0.0000 0.0000 32.4239 -13.3956 -33.3106 7.4513 7.1250 -0.0000 -0.0000 23.1619 -62.5398 -10.1591
